<mxfile host="app.diagrams.net" modified="2023-05-06T15:19:24.672Z" agent="Mozilla/5.0 (Windows NT 10.0; Win64; x64; rv:109.0) Gecko/20100101 Firefox/112.0" etag="KCvvXIczUVOoLKXBeU13" version="21.2.9" type="github">
  <diagram name="Page-1" id="KR2Drv-rmevlS8-3nIJB">
    <mxGraphModel dx="1434" dy="731" grid="1" gridSize="10" guides="1" tooltips="1" connect="1" arrows="1" fold="1" page="1" pageScale="1" pageWidth="850" pageHeight="1100" math="0" shadow="0">
      <root>
        <mxCell id="0" />
        <mxCell id="1" parent="0" />
        <mxCell id="uH36BMfekJLAVwH6wRxy-1" value="" style="rounded=0;whiteSpace=wrap;html=1;rotation=90;strokeWidth=4;perimeterSpacing=0;shadow=0;glass=0;fillColor=none;" parent="1" vertex="1">
          <mxGeometry x="-180" y="500" width="599" height="80" as="geometry" />
        </mxCell>
        <mxCell id="owvMmLqeB7WfYLeQ2Kcy-1" value="&lt;b style=&quot;font-size: 17px;&quot;&gt;Rear of Property&lt;br&gt;&lt;/b&gt;" style="text;html=1;strokeColor=none;fillColor=none;align=center;verticalAlign=middle;whiteSpace=wrap;rounded=0;" parent="1" vertex="1">
          <mxGeometry x="80" y="110" width="60" height="30" as="geometry" />
        </mxCell>
        <mxCell id="owvMmLqeB7WfYLeQ2Kcy-2" value="&lt;font size=&quot;1&quot;&gt;&lt;b style=&quot;font-size: 17px;&quot;&gt;House/Sunroom&lt;/b&gt;&lt;/font&gt;" style="text;html=1;strokeColor=none;fillColor=none;align=center;verticalAlign=middle;whiteSpace=wrap;rounded=0;" parent="1" vertex="1">
          <mxGeometry x="280" y="490" width="60" height="30" as="geometry" />
        </mxCell>
        <mxCell id="owvMmLqeB7WfYLeQ2Kcy-3" value="&lt;font style=&quot;font-size: 16px;&quot;&gt;&lt;b&gt;Fence for Front Yard&lt;/b&gt;&lt;br&gt;&lt;/font&gt;" style="text;html=1;strokeColor=none;fillColor=none;align=center;verticalAlign=middle;whiteSpace=wrap;rounded=0;" parent="1" vertex="1">
          <mxGeometry x="120" y="950" width="60" height="30" as="geometry" />
        </mxCell>
      </root>
    </mxGraphModel>
  </diagram>
</mxfile>
